HIERARCHY
ROOT Hips
{
	OFFSET -14.64140 90.27770 -84.91600
	CHANNELS 6 Xposition Yposition Zposition Zrotation Xrotation Yrotation
	JOINT Spine
	{
		OFFSET 0.00000 13.20850 -1.60436
		CHANNELS 3 Zrotation Xrotation Yrotation
		JOINT Spine1
		{
			OFFSET 0.00000 8.61716 0.00000
			CHANNELS 3 Zrotation Xrotation Yrotation
			JOINT Spine2
			{
				OFFSET 0.00000 8.61717 0.00000
				CHANNELS 3 Zrotation Xrotation Yrotation
				JOINT Spine3
				{
					OFFSET 0.00000 8.61717 0.00000
					CHANNELS 3 Zrotation Xrotation Yrotation
					JOINT Neck
					{
						OFFSET 0.00000 11.07920 1.10792
						CHANNELS 3 Zrotation Xrotation Yrotation
						JOINT Neck1
						{
							OFFSET 0.00000 7.08032 0.00000
							CHANNELS 3 Zrotation Xrotation Yrotation
							JOINT Head
							{
								OFFSET 0.00000 7.08031 0.00000
								CHANNELS 3 Zrotation Xrotation Yrotation
								End site
								{
									OFFSET 0.00000 0.00000 0.00000
								}
							}
						}
					}
					JOINT RightShoulder
					{
						OFFSET -0.01000 7.91373 5.19711
						CHANNELS 3 Zrotation Xrotation Yrotation
						JOINT RightArm
						{
							OFFSET -18.41580 0.00000 0.00000
							CHANNELS 3 Zrotation Xrotation Yrotation
							JOINT RightForeArm
							{
								OFFSET -29.11090 0.00000 0.00000
								CHANNELS 3 Zrotation Xrotation Yrotation
								JOINT RightHand
								{
									OFFSET -24.65040 0.00000 0.00000
									CHANNELS 3 Zrotation Xrotation Yrotation
									JOINT RightHandThumb1
									{
										OFFSET -5.35114 -0.85590 3.97906
										CHANNELS 3 Zrotation Xrotation Yrotation
										JOINT RightHandThumb2
										{
											OFFSET -4.52789 0.00000 0.00000
											CHANNELS 3 Zrotation Xrotation Yrotation
											JOINT RightHandThumb3
											{
												OFFSET -2.46976 0.00000 0.00000
												CHANNELS 3 Zrotation Xrotation Yrotation
												End site
												{
													OFFSET 0.00000 0.00000 0.00000
												}
											}
										}
									}
									JOINT RightHandIndex1
									{
										OFFSET -14.26970 0.00000 2.88139
										CHANNELS 3 Zrotation Xrotation Yrotation
										JOINT RightHandIndex2
										{
											OFFSET -5.48836 0.00000 0.00000
											CHANNELS 3 Zrotation Xrotation Yrotation
											JOINT RightHandIndex3
											{
												OFFSET -3.01859 0.00000 0.00000
												CHANNELS 3 Zrotation Xrotation Yrotation
												End site
												{
													OFFSET 0.00000 0.00000 0.00000
												}
											}
										}
									}
									JOINT RightHandMiddle1
									{
										OFFSET -14.26970 0.00000 -0.09147
										CHANNELS 3 Zrotation Xrotation Yrotation
										JOINT RightHandMiddle2
										{
											OFFSET -6.17441 0.00000 0.00000
											CHANNELS 3 Zrotation Xrotation Yrotation
											JOINT RightHandMiddle3
											{
												OFFSET -3.56743 0.00000 0.00000
												CHANNELS 3 Zrotation Xrotation Yrotation
												End site
												{
													OFFSET 0.00000 0.00000 0.00000
												}
											}
										}
									}
									JOINT RightHandRing1
									{
										OFFSET -12.69180 0.00000 -3.06433
										CHANNELS 3 Zrotation Xrotation Yrotation
										JOINT RightHandRing2
										{
											OFFSET -5.62556 0.00000 0.00000
											CHANNELS 3 Zrotation Xrotation Yrotation
											JOINT RightHandRing3
											{
												OFFSET -3.56744 0.00000 0.00000
												CHANNELS 3 Zrotation Xrotation Yrotation
												End site
												{
													OFFSET 0.00000 0.00000 0.00000
												}
											}
										}
									}
									JOINT RightHandPinky1
									{
										OFFSET -11.11390 0.00000 -6.03719
										CHANNELS 3 Zrotation Xrotation Yrotation
										JOINT RightHandPinky2
										{
											OFFSET -4.52789 0.00000 0.00000
											CHANNELS 3 Zrotation Xrotation Yrotation
											JOINT RightHandPinky3
											{
												OFFSET -2.46976 0.00000 0.00000
												CHANNELS 3 Zrotation Xrotation Yrotation
												End site
												{
													OFFSET 0.00000 0.00000 0.00000
												}
											}
										}
									}
								}
							}
						}
					}
					JOINT LeftShoulder
					{
						OFFSET 0.01000 7.91373 5.19711
						CHANNELS 3 Zrotation Xrotation Yrotation
						JOINT LeftArm
						{
							OFFSET 18.41580 0.00000 0.00000
							CHANNELS 3 Zrotation Xrotation Yrotation
							JOINT LeftForeArm
							{
								OFFSET 29.11090 0.00000 0.00000
								CHANNELS 3 Zrotation Xrotation Yrotation
								JOINT LeftHand
								{
									OFFSET 24.65040 0.00000 0.00000
									CHANNELS 3 Zrotation Xrotation Yrotation
									JOINT LeftHandThumb1
									{
										OFFSET 5.35114 -0.85590 3.97906
										CHANNELS 3 Zrotation Xrotation Yrotation
										JOINT LeftHandThumb2
										{
											OFFSET 4.52789 0.00000 0.00000
											CHANNELS 3 Zrotation Xrotation Yrotation
											JOINT LeftHandThumb3
											{
												OFFSET 2.46977 0.00000 0.00000
												CHANNELS 3 Zrotation Xrotation Yrotation
												End site
												{
													OFFSET 0.00000 0.00000 0.00000
												}
											}
										}
									}
									JOINT LeftHandIndex1
									{
										OFFSET 14.26970 0.00000 2.88139
										CHANNELS 3 Zrotation Xrotation Yrotation
										JOINT LeftHandIndex2
										{
											OFFSET 5.48836 0.00000 0.00000
											CHANNELS 3 Zrotation Xrotation Yrotation
											JOINT LeftHandIndex3
											{
												OFFSET 3.01859 0.00000 0.00000
												CHANNELS 3 Zrotation Xrotation Yrotation
												End site
												{
													OFFSET 0.00000 0.00000 0.00000
												}
											}
										}
									}
									JOINT LeftHandMiddle1
									{
										OFFSET 14.26970 0.00000 -0.09147
										CHANNELS 3 Zrotation Xrotation Yrotation
										JOINT LeftHandMiddle2
										{
											OFFSET 6.17440 0.00000 0.00000
											CHANNELS 3 Zrotation Xrotation Yrotation
											JOINT LeftHandMiddle3
											{
												OFFSET 3.56744 0.00000 0.00000
												CHANNELS 3 Zrotation Xrotation Yrotation
												End site
												{
													OFFSET 0.00000 0.00000 0.00000
												}
											}
										}
									}
									JOINT LeftHandRing1
									{
										OFFSET 12.69180 0.00000 -3.06433
										CHANNELS 3 Zrotation Xrotation Yrotation
										JOINT LeftHandRing2
										{
											OFFSET 5.62556 0.00000 0.00000
											CHANNELS 3 Zrotation Xrotation Yrotation
											JOINT LeftHandRing3
											{
												OFFSET 3.56744 0.00000 0.00000
												CHANNELS 3 Zrotation Xrotation Yrotation
												End site
												{
													OFFSET 0.00000 0.00000 0.00000
												}
											}
										}
									}
									JOINT LeftHandPinky1
									{
										OFFSET 11.11390 0.00000 -6.03719
										CHANNELS 3 Zrotation Xrotation Yrotation
										JOINT LeftHandPinky2
										{
											OFFSET 4.52789 0.00000 0.00000
											CHANNELS 3 Zrotation Xrotation Yrotation
											JOINT LeftHandPinky3
											{
												OFFSET 2.46976 0.00000 0.00000
												CHANNELS 3 Zrotation Xrotation Yrotation
												End site
												{
													OFFSET 0.00000 0.00000 0.00000
												}
											}
										}
									}
								}
							}
						}
					}
					JOINT pCube4
					{
						OFFSET 0.00000 10.91090 1.10792
						CHANNELS 3 Zrotation Xrotation Yrotation
						End site
						{
							OFFSET 0.00000 0.00000 0.00000
						}
					}
				}
			}
		}
	}
	JOINT RightUpLeg
	{
		OFFSET -9.98441 0.00000 0.00000
		CHANNELS 3 Zrotation Xrotation Yrotation
		JOINT RightLeg
		{
			OFFSET 0.00000 -42.11790 0.00000
			CHANNELS 3 Zrotation Xrotation Yrotation
			JOINT RightFoot
			{
				OFFSET 0.00000 -45.00020 -0.00001
				CHANNELS 3 Zrotation Xrotation Yrotation
				JOINT RightForeFoot
				{
					OFFSET 0.00000 -3.74820 0.00000
					CHANNELS 3 Zrotation Xrotation Yrotation
					JOINT RightToeBase
					{
						OFFSET 0.00000 0.06325 14.43120
						CHANNELS 3 Zrotation Xrotation Yrotation
						End site
						{
							OFFSET 0.00000 0.00000 0.00000
						}
					}
				}
			}
		}
	}
	JOINT LeftUpLeg
	{
		OFFSET 9.98441 0.00000 0.00000
		CHANNELS 3 Zrotation Xrotation Yrotation
		JOINT LeftLeg
		{
			OFFSET 0.00000 -42.11800 0.00000
			CHANNELS 3 Zrotation Xrotation Yrotation
			JOINT LeftFoot
			{
				OFFSET 0.00000 -45.00070 0.00000
				CHANNELS 3 Zrotation Xrotation Yrotation
				JOINT LeftForeFoot
				{
					OFFSET 0.00000 -3.74824 0.00000
					CHANNELS 3 Zrotation Xrotation Yrotation
					JOINT LeftToeBase
					{
						OFFSET 0.00000 0.06325 14.43110
						CHANNELS 3 Zrotation Xrotation Yrotation
						End site
						{
							OFFSET 0.00000 0.00000 0.00000
						}
					}
				}
			}
		}
	}
}
MOTION
Frames: 4
Frame Time: 0.050000
0.03726812187261579 -0.045377047453392425 0.04283099300503024 0.018395396220123723 0.0018803989002224896 0.01198942102241999 -1.302147639860898 1.3621472045155794 -1.054156889507261 -0.40034239604688243 3.916488833129678 0.3518962275901233 -0.8348106357452408 -1.8547552088429926 1.9243330927611297 -1.3742374982155499 -0.8751008515097489 -0.315391187063275 -0.17908350030727047 14.90388697202542 0.9882827264116364 0.5485866319757999 -0.2620479793130724 0.7080490555125419 0.4200112113934856 -15.206848398838929 -0.020757558493782576 -4.643579139694317 1.7409005610699786 -13.706675396134433 69.09281946103916 -1.3258674823720498 47.274215451932264 9.312780971973957 6.020831490944031 109.73992857476127 18.977830504727287 -0.5283863668391546 -0.9657709809854659 4.48516068293408 -0.09996769874322664 -1.6107409984977341 -0.04164181880404825 -0.024083669635591776 -56.20912828947651 -0.013795176742515155 0.044287295778298895 -56.28190292204994 -38.80197240188947 -0.001535580599120189 -0.019058108854234784 0.030151777133831402 0.022915392622686482 -0.028402760046415138 -0.02725917631193657 0.008325948005122846 0.009837643988235025 -36.707692695613254 0.03174051294276093 0.022282679426002216 0.019307505260797404 -0.007948701011968403 -0.026128771929628855 -0.0009381938841085082 -0.026544348642186827 0.017560830783030848 -19.80494792765367 0.022864601749020542 0.004780042632846841 -0.04114357080996282 -0.04982997715495889 0.008741321871856972 0.0057370272168104156 -0.037965903454238364 0.005474703400104158 24.07066080310481 -0.033168417249527855 0.04357570900827032 28.83687143782365 0.043963745959168 -0.03596828556989384 28.833097514724397 -0.009366790808418513 0.0141143381240607 5.3910877975591 1.4037848608709087 13.439788503923262 -70.72717338195778 16.998302564726966 -25.23936959069264 0.48207854813539947 -3.1462080399904306 -97.99329240816766 -18.780387110670105 8.865187772892282 -8.030012024452098 -0.43014728694713333 0.05237110160449805 -8.146276273175856 -0.008181322341532087 0.01745717733999898 44.54404780060483 0.012300732907499197 0.03756290320978393 44.5286368018945 12.500449241793238 0.01673570211867393 0.0480406676243822 -0.01653928372395482 -0.02041327914365252 0.020524697224600905 -0.0054127836966657746 0.02978818693752822 0.034489508418523294 11.10667058093909 0.04687324329008573 0.007172819002663241 0.023293945199594955 0.010297710997913464 0.0037395776618205064 -0.031526174533386034 0.00445336917392643 0.047224946345361105 4.7635506373654914 -0.007185217494346075 0.0079146204933082 0.007112694554020537 -0.025687802869689042 0.03648202306729032 -0.02993834020543304 -0.04188077064847259 0.024422722129240133 -5.586428690609544 0.0011713503650115384 0.004845156471267242 -6.695456489192042 0.03300151886650859 0.0034369397339148763 -6.760206567280097 -0.04395274878322624 0.01942905417030813 -0.025579005544517 -0.04415765147784288 0.02986633162645725 8.074484948863075 3.5389157875416517 -19.210359202259447 -0.026146789379307832 10.382492673904428 -0.010608622003158926 -5.573244483626383 -15.66737687632776 3.174416556831475 0.005675725016344414 0.02795825600976345 -0.04743013087473633 -0.028714286647825167 4.729250921268773 0.016606361830909137 12.417949316020254 -8.241309715383467 6.869783993382751 0.008938718767695607 46.36727238506639 -0.01648978549726343 -4.364784489083536 -14.76664656901938 -3.8340169241854465 0.004773235809986376 0.013631857979417203 0.020377351748535007 -0.01718020976836162 -10.748928589005878 -0.03584463177916554 
-0.016837352600826423 0.0019509760786816399 -0.012052508026241774 0.028584434441194923 -0.01420842249572599 -0.030941364989018325 -1.4120981338912695 1.290840994540547 -0.9853127726839519 -0.4374377134658344 4.02478832708075 0.38089970506476867 -0.7802567710873181 -1.9345019043405607 1.8100265450222572 -1.387379409176153 -0.9177269139222676 -0.30128511884030806 -0.3093292768436277 15.07905012424174 1.20682349434461 0.5759414808363986 -0.30889058313037365 1.2555156989632992 0.42882404734925567 -15.427488088884873 0.056592622287767166 -4.481843803235996 1.718506837856598 -13.723278974571242 69.5470922931595 -0.31967960464388406 47.20797836835881 8.584692433428835 5.702938151960286 111.01397721975913 18.9061472518742 -0.5488374359948959 -0.9730943791239204 4.532466490806846 -0.14673435843628582 -1.5961163072339517 0.0454072390618357 -0.03948664097459955 -56.259809874987134 -0.03697086957037808 0.045664665676013245 -56.22399556733803 -38.73291405311141 0.022601562941888954 -0.03287247231375978 -0.025852626616516217 -0.043169547300369815 0.01868699856049613 -6.873048569873641e-05 0.03858876879384859 0.009321760238685946 -36.72475506414985 -0.013574460646975033 0.018394747760524664 -0.03993767451879434 0.01279488240216934 -0.003719845602211779 -0.04449052841095489 0.029422023884077154 -0.004446200795997273 -19.785497884364407 0.004120974828055459 0.005806338896584686 0.044566842867570455 0.03580621561898493 0.011337151473054884 0.04360071482013759 0.007258178468394569 -0.011668151274370398 24.07216922873871 -0.02731217981642691 -0.018017472359439353 28.88709188082658 0.017316519477541127 -0.004571279190394565 28.852357921722213 0.005506531519876046 -0.041802083981006474 5.6787189982944115 1.4144229998103357 13.470419482258373 -70.49520372338722 17.765622877508907 -27.026356155522937 2.950059225147796 -4.151136896917294 -101.06978133284167 -18.212237705021824 8.949221486186733 -8.069292027987334 -0.5186311587006445 0.04404056981342154 -8.110564414997777 -0.021090848290370005 0.011969582280459447 44.584352529814815 -0.006284497016052331 -0.01507221407895229 44.54347959149063 12.452434915831006 0.04280458170698408 0.012288971100167146 0.01877659963568972 -0.0006131924536440262 -0.024716174490087502 0.019544534043194582 -0.012459828466809387 0.028106995570844704 11.140178812644775 0.015762797169909297 0.026340078343785964 0.021245677328655302 0.04515996399101083 0.02889072096506684 -0.009424503761210018 -0.036472908866782165 -0.004656292893260299 4.7244955395723585 0.024014607854214807 -0.007005593624007891 0.003324544309606389 -0.029390833538333813 -0.028252190935432644 -0.001928298488968441 0.022201395910486782 -0.005486515203878011 -5.617529637267742 -0.012417657903077297 -0.004274866861974541 -6.732570326121623 -0.01354793784574485 0.0019835814420801506 -6.684011440506034 -0.013007201545380074 0.019114438903269686 -0.005964122019627414 -0.027441986267396423 0.018017047969673072 8.067709974733187 3.5043033713308245 -19.243235277538652 -0.013350038108496451 10.385740428892975 0.018996059412829773 -5.5968653247615565 -15.658119170112931 3.1990278875631697 -0.002301633654262458 -0.037659131181314476 -0.02692585235430706 -0.042251739882001614 4.7040025732175526 -0.03597621170935321 12.439429902278219 -8.225514582110685 6.905506556122385 -0.02998185478990635 46.393771395163654 -0.0077699414458184315 -4.298764247574202 -14.733539750276654 -3.849429522457935 0.022086923919091946 0.00922485999262916 -0.022845420737557416 -0.0034745374402457944 -10.768828140519787 0.03210718887224671 
-0.036286614097434576 0.019251680752886722 0.0075959354677454976 0.006361499372626542 0.041519966230208684 0.03582967162280339 -1.4727966438514009 1.2265500572497003 -1.0402006502657017 -0.3759861465701629 4.034490386509126 0.3161521312802444 -0.8271921073126272 -1.912316787017353 1.7625054206235407 -1.3986199430392516 -0.8765287101345324 -0.292207063184499 -0.36012449458022233 15.333025342165111 1.2119479394919126 0.5962506312411222 -0.29621483851245733 1.4766407894348978 0.3837417443351314 -15.510653713552786 0.03738723167047268 -4.4591791721442195 1.674753989902026 -13.745743096108143 70.28658901563315 0.3857613675427585 47.31391566532412 7.55402527837649 5.229316524744933 112.44898923888724 18.582468086957547 -0.5862354783153038 -1.0447529824724424 4.541029357783166 -0.11586701726501812 -1.5878649549061974 0.022286049940369673 -0.011561743880692697 -56.18876692920085 -0.04397216043956968 0.01250028980413264 -56.24651692094053 -38.80281123233339 0.036048661440681036 -0.004326449185685321 -0.02471392076579421 0.04820098723012894 -0.029495296526449076 0.009029988420577374 -0.01970257322328975 0.03161123517715022 -36.72334537887238 -0.012848685236952616 -0.03884113034127377 -0.03696466833067356 0.047928220180615086 0.0070390746459685185 0.014534082616349244 0.0242499188255779 -0.010407446617368702 -19.763129578987456 -0.030713471371909985 -0.030523084905476224 -0.04148720344536508 -0.01920579946649817 -0.01993693242540762 0.04708798682432989 -0.028417569812220555 0.0383414116121098 24.084559199923092 -0.011689641014529246 -0.024348809275109767 28.860742359396834 0.02456785518086729 -0.021879481704803996 28.911038861016436 0.028627131256933513 0.00020826989916140697 5.952627022077201 1.4536370792200488 13.47564771304859 -70.24778562645419 18.347732970209652 -28.647422985237487 5.109767978298379 -5.024505828037771 -103.71010688359394 -17.44844865568441 8.834237965225501 -8.062403708208647 -0.4871322004541798 0.10887966259042767 -8.156202350207684 0.033239627039824346 -0.024042186359518537 44.5439469098406 -0.015277668780410243 0.030018513438546897 44.56424557813047 12.490428430479456 0.01868826888088956 -0.03585020066716873 -0.005272404549232214 -0.03868473511675276 0.045564103200793266 0.03441518221948003 0.02478357083485126 -0.004761271298482872 11.134553318174675 -0.01835011014163869 0.04099490562518162 -0.013935962948076159 0.015535089617839181 -0.015995707856356994 0.04200304917118392 0.046407868935395585 -0.02288159818450432 4.7979513644693625 -0.032885921901228986 -0.017186947860010324 0.04088605049320596 0.04508823776894457 0.0357824893963891 -0.038629077168108594 0.028553526878069526 -0.04475505148821327 -5.595911497932857 0.02008872274432983 -0.03301142358049315 -6.680914987991941 -0.007863931472022103 0.02886986156699938 -6.687218875818124 -0.0385393732704677 0.04820764293498943 -0.04225113809756283 -0.041528818312025664 0.04414551633836157 8.046560098268845 3.5295474726950538 -19.207656411358883 -0.010547440971076153 10.414090215484629 0.00851533010873928 -5.616094246974078 -15.706492504001927 3.1991905482201966 0.006095288362237436 0.005820461619742628 0.010460858294656953 0.04015115383589658 4.649886136430678 -0.007523357304395972 12.490844875221121 -8.278979019034907 6.83689037418996 -0.036129513663337366 46.34478635649701 0.007698314681961184 -4.329216575600073 -14.746838364287237 -3.865057611020777 0.03240982865873765 -0.014894551426677423 -0.00752974746307376 -0.0496796097606563 -10.771181279122404 -0.007061515290723746 
-0.028472735375972186 0.017958204708731683 -0.01667501879691515 0.025727839456470027 0.031916447052872395 -0.03975566735629518 -1.4081894966137711 1.2097595695351635 -1.04727030456781 -0.4390786165957694 4.014763854203956 0.3405513854368415 -0.8279702986585719 -1.9874982472776666 1.6374648602270436 -1.3480089057845481 -0.7933243426715126 -0.3402027350484587 -0.4208121556540093 15.569897211731464 1.2240635078463682 0.5902957975008418 -0.35714882094675277 1.608170166347123 0.40547198279791025 -15.702949619938929 0.08562804109915945 -4.479041148706281 1.6794142107156493 -13.797887174930285 70.68736635668573 1.8742599543094738 47.50222535202032 6.1965779476586 4.698210563856477 113.67591409342236 18.24017658153855 -0.5036427031272178 -0.9461983871040655 4.531881681768167 -0.15428534370582186 -1.5719836103428884 0.016007342630450734 0.0037787965970333425 -56.206538901911394 -0.04746057662261712 0.01616600464652116 -56.20963510135755 -38.80345600713966 -0.04568415825105239 -0.003352402579420758 -0.020456894392045243 -0.04080897962929942 -0.000547176738724471 -0.0246769549842858 0.03528449962868413 0.019978972453132404 -36.72172789169488 0.0032497689311070665 0.04957031284434791 0.007846707346044804 0.02304740055993336 0.04135969458538851 -0.0007441010811792535 -0.049588529421997304 0.026291787033716443 -19.772979764289563 -0.027244881686456186 -0.02663868678959596 -0.014283146171690585 -0.04081030466165663 -0.013164055835640514 -0.021130121951237694 -0.02064450188117555 -0.0022789764922839712 24.025470463622224 0.025030774722138157 0.018059826231116138 28.83531753974551 0.02374647802193609 0.0453878686751101 28.881618395130467 0.03922388556789472 0.011852878030862185 6.267422980938467 1.5212820964171871 13.500646673741297 -70.08630945609141 18.897637649305068 -30.266530198002638 6.485100379980102 -5.599599349991369 -105.73910589348093 -16.826408889363694 8.540328877088475 -7.835672769301044 -0.48033330517243766 0.04844698969455392 -8.138543387198718 0.04507106394970086 -0.014184903807289888 44.58044656894106 0.016798744250499972 -0.008427630874838343 44.5788350667063 12.469735204718452 0.008034573730522455 -0.046754893223404884 0.013358995596500889 -0.031198159434473825 0.006925105327494687 0.026352280126222243 -0.013280467613736564 0.03781906112412271 11.118387574537191 0.046319596140868155 -0.028986200980986865 -0.019131594890091266 0.04881835531972448 0.046172495741817934 -0.01451715327791141 -0.03266323572538278 -0.02507653290734865 4.738267316886256 0.02425844124354428 0.001779296804482534 0.017881940411595642 -0.03764701538544533 0.02744754936903153 0.042484790376859226 -0.002925568604523659 0.04237397571318863 -5.603740627668458 -0.03094173040464189 -0.03535817125392693 -6.740530479480196 0.00886304667967218 -0.02709082769947062 -6.733570827214367 0.004995174826902106 -0.04075677407083573 0.011054748223304945 -0.00955485883922658 0.015402965908418685 8.05582304676342 3.5202753966732883 -19.251084028505808 -0.041985972200287096 10.397272886159298 -0.025231665828518723 -5.624201566970045 -15.625832698714621 3.176909712499192 0.04998800961001615 0.04944088467711021 -0.04473001254132733 0.032297067954962254 4.741827215253366 0.012258562537031682 12.500813956153628 -8.231683795559379 6.886901040291696 -0.038856053099530136 46.38658057669466 0.032960734929583346 -4.302020187779465 -14.757234154760939 -3.831480755586371 0.033214360757877294 0.0126300782822902 0.03047461800312462 -0.035770426032664275 -10.722729006790258 0.009797096183867232 
